<?xml version="1.0" encoding="iso-8859-1"?>
<!-- Uploaded to: SVG Repo, www.svgrepo.com, Generator: SVG Repo Mixer Tools -->
<svg height="800px" width="800px" version="1.1" id="Layer_1" xmlns="http://www.w3.org/2000/svg" xmlns:xlink="http://www.w3.org/1999/xlink" 
	 viewBox="0 0 512 512" xml:space="preserve">
<path style="fill:#DDB690;" d="M74.347,467.152c-31.263,0-58.487-22.221-64.728-52.835c-0.661-3.238,0.169-6.602,2.26-9.162
	c2.091-2.558,5.221-4.044,8.526-4.044h471.188c3.306,0,6.436,1.486,8.526,4.044c2.092,2.56,2.922,5.922,2.261,9.161
	c-6.241,30.615-33.463,52.836-64.728,52.836H74.347z"/>
<path style="opacity:0.1;enable-background:new    ;" d="M53.496,414.317c-0.661-3.238,0.169-6.602,2.26-9.162
	c2.091-2.558,5.221-4.044,8.526-4.044H20.405c-3.305,0-6.436,1.486-8.526,4.044c-2.091,2.56-2.922,5.924-2.26,9.162
	c6.242,30.614,33.465,52.835,64.728,52.835h43.877C86.961,467.152,59.738,444.931,53.496,414.317z"/>
<path style="fill:#E8A364;" d="M212.909,349.008c0,12.04-9.762,21.8-21.805,21.8H37.431c-12.042,0-21.805-9.76-21.805-21.8l0,0
	c0-12.039,9.762-21.8,21.805-21.8h153.673C203.147,327.209,212.909,336.968,212.909,349.008L212.909,349.008z"/>
<path style="opacity:0.1;enable-background:new    ;" d="M58.717,349.008c0-12.039,9.762-21.8,21.805-21.8H37.431
	c-12.042,0-21.805,9.759-21.805,21.8s9.762,21.8,21.805,21.8h43.091C68.479,370.808,58.717,361.048,58.717,349.008z"/>
<path style="fill:#E8A364;" d="M496.374,349.008c0,12.04-9.762,21.8-21.804,21.8H320.897c-12.042,0-21.805-9.76-21.805-21.8l0,0
	c0-12.039,9.762-21.8,21.805-21.8H474.57C486.611,327.209,496.374,336.968,496.374,349.008L496.374,349.008z"/>
<path style="fill:#C14616;" d="M504.163,312.998c0,8.636-7.003,15.636-15.64,15.636H23.478c-8.638,0-15.641-7.001-15.641-15.636l0,0
	c0-8.636,7.003-15.637,15.641-15.637h465.045C497.16,297.362,504.163,304.362,504.163,312.998L504.163,312.998z"/>
<path style="fill:#E8A364;" d="M354.642,349.008c0,12.04-9.764,21.8-21.805,21.8H179.163c-12.042,0-21.805-9.76-21.805-21.8l0,0
	c0-12.039,9.762-21.8,21.805-21.8h153.673C344.879,327.209,354.642,336.968,354.642,349.008L354.642,349.008z"/>
<path style="fill:#B27419;" d="M479.937,268.652c0,8.374-6.79,15.161-15.166,15.161H47.227c-8.376,0-15.166-6.788-15.166-15.161
	v-31.334c0-8.373,6.79-15.161,15.166-15.161h417.545c8.376,0,15.166,6.789,15.166,15.161v31.334H479.937z"/>
<path style="opacity:0.1;enable-background:new    ;" d="M75.618,268.652v-31.334c0-8.373,6.79-15.161,15.166-15.161H47.227
	c-8.376,0-15.166,6.789-15.166,15.161v31.334c0,8.374,6.79,15.161,15.166,15.161h43.557
	C82.408,283.813,75.618,277.025,75.618,268.652z"/>
<path style="fill:#61D16B;" d="M484.824,302.778c2.691-3.527,4.307-7.917,4.307-12.694c0-11.582-9.391-20.97-20.974-20.97
	c-5.559,0-10.597,2.178-14.351,5.706c-3.755-3.529-8.794-5.706-14.352-5.706c-5.558,0-10.597,2.178-14.351,5.706
	c-3.754-3.529-8.793-5.706-14.352-5.706c-5.559,0-10.598,2.178-14.351,5.706c-3.754-3.529-8.794-5.706-14.352-5.706
	s-10.597,2.178-14.351,5.706c-3.754-3.529-8.793-5.706-14.351-5.706c-5.559,0-10.599,2.178-14.352,5.706
	c-3.754-3.529-8.793-5.706-14.351-5.706c-5.559,0-10.598,2.178-14.351,5.706c-3.754-3.529-8.794-5.706-14.353-5.706
	c-5.558,0-10.597,2.178-14.351,5.706c-3.753-3.529-8.793-5.706-14.352-5.706c-5.557,0-10.597,2.178-14.351,5.706
	c-3.752-3.529-8.792-5.706-14.351-5.706s-10.597,2.178-14.352,5.706c-3.752-3.529-8.793-5.706-14.351-5.706
	c-5.559,0-10.597,2.178-14.351,5.706c-3.752-3.529-8.793-5.706-14.352-5.706s-10.597,2.178-14.351,5.706
	c-3.753-3.529-8.794-5.706-14.352-5.706c-5.558,0-10.597,2.178-14.351,5.706c-3.753-3.529-8.792-5.706-14.351-5.706
	s-10.598,2.178-14.352,5.706c-3.753-3.529-8.793-5.706-14.352-5.706c-5.559,0-10.597,2.178-14.351,5.706
	c-3.752-3.529-8.794-5.706-14.352-5.706c-5.558,0-10.597,2.178-14.351,5.706c-3.752-3.529-8.794-5.706-14.352-5.706
	c-11.584,0-20.974,9.389-20.974,20.97c0,4.778,1.616,9.168,4.309,12.694H484.824z"/>
<ellipse style="fill:#FFEA92;" cx="256" cy="80.666" rx="35.819" ry="35.809"/>
<path style="opacity:0.1;enable-background:new    ;" d="M241.825,80.662c0-16.007,10.506-29.558,24.999-34.146
	c-3.416-1.081-7.05-1.668-10.823-1.668c-19.784,0-35.822,16.035-35.822,35.814c0,19.78,16.038,35.814,35.822,35.814
	c3.773,0,7.408-0.587,10.823-1.668C252.33,110.22,241.825,96.67,241.825,80.662z"/>
<path style="fill:#2E7C35;" d="M256,97.232c-9.139,0-16.574-7.433-16.574-16.57s7.436-16.57,16.574-16.57
	c9.139,0,16.573,7.433,16.573,16.57c0,3.12-2.529,5.649-5.65,5.649s-5.65-2.529-5.65-5.649c0-2.907-2.367-5.273-5.274-5.273
	c-2.908,0-5.274,2.366-5.274,5.273c0,2.907,2.366,5.272,5.274,5.272c3.12,0,5.65,2.53,5.65,5.649
	C261.65,94.703,259.12,97.232,256,97.232z"/>
<path style="fill:#DDB690;" d="M469.148,170.75c-14.929-14.748-34.709-22.869-55.697-22.869H377.08
	c-10.139,0-19.99,1.912-29.154,5.534c-9.164-3.622-19.014-5.534-29.153-5.534H282.4c-10.139,0-19.989,1.912-29.154,5.534
	c-9.164-3.622-19.015-5.534-29.154-5.534h-36.372c-10.14,0-19.989,1.912-29.154,5.534c-9.165-3.622-19.015-5.534-29.154-5.534
	H93.043c-20.989,0-40.77,8.121-55.697,22.869c-14.912,14.732-23.275,34.38-23.55,55.329c-0.032,2.493,0.936,4.896,2.687,6.672
	c1.753,1.776,4.143,2.774,6.638,2.774h460.251c2.494,0,4.885-0.999,6.638-2.774c1.752-1.775,2.72-4.179,2.686-6.672
	C492.424,205.13,484.059,185.482,469.148,170.75z"/>
<path style="opacity:0.1;enable-background:new    ;" d="M46.429,226.079c0.275-20.948,8.638-40.597,23.55-55.329
	c14.927-14.748,34.708-22.869,55.697-22.869H93.044c-20.989,0-40.77,8.121-55.697,22.869c-14.912,14.732-23.275,34.38-23.55,55.329
	c-0.032,2.493,0.936,4.896,2.687,6.672c1.753,1.776,4.143,2.774,6.638,2.774h32.632c-2.495,0-4.885-0.999-6.638-2.774
	C47.364,230.976,46.396,228.572,46.429,226.079z"/>
<g>
	<path style="fill:#B28A6B;" d="M111.114,188.236H97.363c-4.301,0-7.788-3.486-7.788-7.786s3.487-7.786,7.788-7.786h13.752
		c4.301,0,7.788,3.486,7.788,7.786C118.901,184.75,115.415,188.236,111.114,188.236z"/>
	<path style="fill:#B28A6B;" d="M78.699,210.035H64.947c-4.301,0-7.788-3.486-7.788-7.786s3.486-7.786,7.788-7.786h13.752
		c4.301,0,7.788,3.486,7.788,7.786C86.486,206.549,82.999,210.035,78.699,210.035z"/>
	<path style="fill:#B28A6B;" d="M144.513,210.035H130.76c-4.301,0-7.788-3.486-7.788-7.786s3.487-7.786,7.788-7.786h13.753
		c4.301,0,7.788,3.486,7.788,7.786C152.299,206.549,148.813,210.035,144.513,210.035z"/>
	<path style="fill:#B28A6B;" d="M223.094,188.236h-13.752c-4.301,0-7.788-3.486-7.788-7.786s3.487-7.786,7.788-7.786h13.752
		c4.301,0,7.788,3.486,7.788,7.786C230.881,184.75,227.395,188.236,223.094,188.236z"/>
	<path style="fill:#B28A6B;" d="M190.678,210.035h-13.752c-4.301,0-7.788-3.486-7.788-7.786s3.486-7.786,7.788-7.786h13.752
		c4.301,0,7.788,3.486,7.788,7.786S194.979,210.035,190.678,210.035z"/>
	<path style="fill:#B28A6B;" d="M256.492,210.035h-13.753c-4.301,0-7.788-3.486-7.788-7.786s3.487-7.786,7.788-7.786h13.753
		c4.301,0,7.788,3.486,7.788,7.786S260.793,210.035,256.492,210.035z"/>
	<path style="fill:#B28A6B;" d="M335.074,188.236h-13.752c-4.301,0-7.788-3.486-7.788-7.786s3.487-7.786,7.788-7.786h13.752
		c4.301,0,7.788,3.486,7.788,7.786S339.374,188.236,335.074,188.236z"/>
	<path style="fill:#B28A6B;" d="M302.658,210.035h-13.752c-4.301,0-7.788-3.486-7.788-7.786s3.487-7.786,7.788-7.786h13.752
		c4.301,0,7.788,3.486,7.788,7.786C310.445,206.549,306.96,210.035,302.658,210.035z"/>
	<path style="fill:#B28A6B;" d="M368.471,210.035h-13.752c-4.301,0-7.788-3.486-7.788-7.786s3.487-7.786,7.788-7.786h13.752
		c4.301,0,7.788,3.486,7.788,7.786S372.772,210.035,368.471,210.035z"/>
	<path style="fill:#B28A6B;" d="M447.053,188.236h-13.752c-4.301,0-7.787-3.486-7.787-7.786s3.486-7.786,7.787-7.786h13.752
		c4.301,0,7.788,3.486,7.788,7.786S451.354,188.236,447.053,188.236z"/>
	<path style="fill:#B28A6B;" d="M414.637,210.035h-13.752c-4.301,0-7.788-3.486-7.788-7.786s3.487-7.786,7.788-7.786h13.752
		c4.301,0,7.787,3.486,7.787,7.786S418.939,210.035,414.637,210.035z"/>
</g>
<path style="opacity:0.1;enable-background:new    ;" d="M50.155,312.998c0-8.636,7.003-15.637,15.641-15.637H23.478
	c-8.638,0-15.641,7.001-15.641,15.637s7.003,15.636,15.641,15.636h42.318C57.158,328.635,50.155,321.634,50.155,312.998z"/>
<path style="fill:#FFE060;" d="M413.347,438.483c-2.754,0-5.395-1.094-7.342-3.041l-34.315-34.308H32.239
	c-8.588,0-15.575-6.985-15.575-15.571s6.988-15.571,15.575-15.571h447.52c8.589,0,15.575,6.985,15.575,15.571
	s-6.987,15.571-15.575,15.571h-24.755l-34.317,34.308C418.741,437.389,416.101,438.483,413.347,438.483z"/>
<g style="opacity:0.1;">
	<path d="M49.11,385.562c0-8.586,6.987-15.571,15.575-15.571H32.239c-8.588,0-15.575,6.985-15.575,15.571
		s6.988,15.571,15.575,15.571h32.446C56.097,401.133,49.11,394.148,49.11,385.562z"/>
</g>
<path d="M500.848,395.725c1.489-3.075,2.325-6.523,2.325-10.163c0-6.431-2.609-12.264-6.822-16.499
	c4.871-5.281,7.86-12.321,7.86-20.055c0-5.66-1.605-10.948-4.372-15.451c7.243-4.002,12.162-11.715,12.162-20.558
	c0-9.983-6.267-18.524-15.072-21.911c0.012-0.335,0.04-0.667,0.04-1.003c0-8.317-3.547-15.818-9.204-21.081
	c0.002-0.117,0.01-0.233,0.01-0.35v-25.892c2.936-0.785,5.66-2.323,7.814-4.505c3.204-3.247,5.007-7.723,4.944-12.279
	c-0.3-23.019-9.49-44.612-25.878-60.802c-16.405-16.205-38.141-25.13-61.204-25.13H377.08c-10.079,0-19.898,1.715-29.133,4.987
	c-9.247-3.28-19.084-4.987-29.175-4.987h-36.373c-6.316,0-12.53,0.675-18.564,1.983v-18.43c4.375-0.797,8.62-2.254,12.545-4.328
	c3.825-2.023,5.287-6.765,3.264-10.591c-2.023-3.824-6.762-5.288-10.591-3.264c-4.045,2.139-8.438,3.224-13.055,3.224
	c-15.431,0-27.986-12.55-27.986-27.977s12.554-27.977,27.986-27.977c13.573,0,24.917,9.711,27.452,22.548
	c0.348,1.758,0.534,3.573,0.534,5.429c0,4.328,3.508,7.837,7.837,7.837s7.837-3.509,7.837-7.837c0-1.84-0.128-3.649-0.35-5.429
	C296.626,53.718,278.233,37.011,256,37.011c-24.074,0-43.659,19.581-43.659,43.651c0,21.394,15.478,39.229,35.822,42.933v19.825
	c-7.733-2.212-15.813-3.375-24.07-3.375h-36.372c-10.078,0-19.896,1.716-29.132,4.987c-9.247-3.279-19.085-4.987-29.176-4.987
	H93.043c-23.066,0-44.802,8.926-61.205,25.13C15.453,181.363,6.262,202.956,5.96,225.977c-0.06,4.558,1.743,9.033,4.946,12.279
	c3.203,3.244,7.656,5.106,12.216,5.106h1.104v21.225c-9.162,4.828-15.424,14.443-15.424,25.497c0,1.469,0.122,2.917,0.343,4.344
	C3.588,298.724,0,305.448,0,312.998c0,8.843,4.917,16.556,12.162,20.558c-2.767,4.502-4.372,9.791-4.372,15.452
	c0,7.734,2.989,14.775,7.86,20.055c-4.213,4.235-6.822,10.068-6.822,16.499c0,3.639,0.836,7.088,2.324,10.163
	c-2.012,1.137-3.835,2.629-5.343,4.473c-3.595,4.402-5.005,10.12-3.869,15.685c6.983,34.249,37.435,59.106,72.407,59.106h43.727
	c4.328,0,7.837-3.509,7.837-7.837s-3.509-7.837-7.837-7.837H74.347c-27.556,0-51.549-19.583-57.05-46.566
	c-0.395-1.934,1.137-3.801,3.109-3.801l348.038,0.023l32.022,32.015c3.442,3.44,8.018,5.334,12.883,5.334s9.44-1.894,12.883-5.335
	l32.021-32.014l33.343-0.023c1.973,0,3.504,1.868,3.11,3.802c-5.5,26.981-29.493,46.565-57.05,46.565H156.735
	c-4.328,0-7.837,3.509-7.837,7.837s3.509,7.837,7.837,7.837h280.919c34.975,0,65.425-24.858,72.407-59.108
	c1.136-5.567-0.276-11.284-3.871-15.685C504.682,398.353,502.86,396.862,500.848,395.725
	C502.337,392.65,502.86,396.862,500.848,395.725C502.337,392.65,502.86,396.862,500.848,395.725z M23.122,227.688
	c-0.402,0-0.779-0.157-1.061-0.442c-0.278-0.282-0.435-0.67-0.429-1.064c0.248-18.876,7.784-36.582,21.222-49.857
	c13.45-13.288,31.275-20.606,50.19-20.606h36.371c18.914,0,36.739,7.318,50.19,20.606c3.08,3.042,8.04,3.01,11.082-0.067
	c3.042-3.079,3.011-8.04-0.067-11.082c-3.364-3.323-6.962-6.322-10.739-9.019c2.587-0.285,5.203-0.439,7.843-0.439h36.372
	c18.914,0,36.738,7.318,50.19,20.606c3.076,3.041,8.039,3.01,11.082-0.067c3.041-3.079,3.011-8.042-0.068-11.082
	c-3.364-3.323-6.962-6.322-10.739-9.019c2.588-0.285,5.204-0.439,7.843-0.439h36.373c18.914,0,36.737,7.318,50.189,20.606
	c3.076,3.041,8.038,3.01,11.083-0.067c3.041-3.079,3.011-8.04-0.068-11.082c-3.364-3.323-6.962-6.322-10.739-9.019
	c2.588-0.285,5.204-0.439,7.844-0.439h36.371c18.913,0,36.737,7.318,50.189,20.606c13.438,13.276,20.974,30.982,21.222,49.859
	c0.005,0.393-0.151,0.779-0.428,1.061c-0.278,0.282-0.665,0.443-1.061,0.443L23.122,227.688L23.122,227.688z M46.596,280.528
	c3.017,2.837,7.72,2.837,10.736,0.001c2.456-2.308,5.645-3.579,8.983-3.579c3.339,0,6.53,1.271,8.983,3.578
	c3.017,2.837,7.719,2.837,10.736,0.001c2.456-2.308,5.646-3.579,8.983-3.579c3.338,0,6.53,1.271,8.983,3.579
	c3.017,2.836,7.72,2.837,10.736,0.001c2.456-2.308,5.646-3.579,8.984-3.579s6.529,1.271,8.983,3.579
	c3.017,2.836,7.72,2.837,10.736,0.001c2.456-2.308,5.645-3.579,8.983-3.579s6.53,1.271,8.984,3.579
	c3.017,2.836,7.72,2.837,10.736,0.001c2.456-2.308,5.645-3.579,8.983-3.579c3.339,0,6.53,1.271,8.983,3.578
	c3.016,2.837,7.719,2.837,10.736,0.001c2.456-2.308,5.646-3.579,8.983-3.579c3.338,0,6.529,1.271,8.982,3.578
	c3.017,2.837,7.719,2.837,10.735,0.002c2.457-2.308,5.648-3.58,8.985-3.58c3.338,0,6.529,1.271,8.982,3.578
	c3.016,2.837,7.72,2.837,10.736,0.001c2.456-2.308,5.646-3.579,8.984-3.579s6.53,1.271,8.984,3.579
	c3.017,2.837,7.72,2.836,10.735,0.001c2.456-2.308,5.646-3.579,8.984-3.579c3.338,0,6.531,1.271,8.986,3.579
	c3.017,2.837,7.72,2.836,10.735-0.001c2.454-2.307,5.643-3.579,8.983-3.579c3.337,0,6.529,1.271,8.984,3.579
	c3.017,2.837,7.72,2.836,10.735-0.001c2.454-2.307,5.645-3.579,8.984-3.579c3.337,0,6.529,1.271,8.984,3.579
	c3.017,2.836,7.719,2.836,10.734,0c2.456-2.308,5.646-3.579,8.984-3.579c3.338,0,6.53,1.271,8.985,3.579
	c3.017,2.837,7.72,2.836,10.735-0.001c2.454-2.307,5.643-3.579,8.983-3.579c3.338,0,6.53,1.271,8.985,3.579
	c3.017,2.836,7.719,2.836,10.734,0c2.456-2.308,5.646-3.579,8.984-3.579c3.337,0,6.529,1.272,8.985,3.58
	c3.019,2.835,7.719,2.835,10.734-0.001c2.456-2.308,5.646-3.579,8.984-3.579c7.055,0,12.815,5.593,13.109,12.575H24.503
	c0.296-6.982,6.053-12.575,13.109-12.575C40.952,276.949,44.143,278.221,46.596,280.528z M39.899,261.376v-18.015h432.202v18.191
	c-1.29-0.177-2.605-0.277-3.943-0.277c-5.09,0-10.017,1.337-14.351,3.84c-4.334-2.504-9.262-3.84-14.352-3.84
	s-10.017,1.336-14.351,3.84c-4.333-2.504-9.261-3.84-14.352-3.84s-10.018,1.336-14.351,3.84c-4.334-2.504-9.261-3.84-14.352-3.84
	c-5.09,0-10.017,1.336-14.351,3.84c-4.333-2.504-9.261-3.84-14.351-3.84c-5.091,0-10.018,1.336-14.352,3.84
	c-4.334-2.504-9.261-3.84-14.351-3.84c-5.091,0-10.018,1.336-14.351,3.84c-4.335-2.504-9.262-3.84-14.353-3.84
	c-5.09,0-10.017,1.336-14.351,3.84c-4.333-2.504-9.261-3.84-14.352-3.84c-5.09,0-10.016,1.336-14.351,3.84
	c-4.333-2.504-9.26-3.84-14.352-3.84c-5.09,0-10.016,1.336-14.351,3.84c-4.333-2.504-9.261-3.84-14.352-3.84
	c-5.091,0-10.016,1.336-14.351,3.84c-4.334-2.504-9.261-3.84-14.353-3.84c-5.091,0-10.017,1.337-14.351,3.84
	c-4.334-2.504-9.261-3.84-14.352-3.84c-5.091,0-10.017,1.336-14.351,3.84c-4.333-2.504-9.26-3.84-14.351-3.84
	c-5.091,0-10.018,1.336-14.352,3.84c-4.333-2.504-9.261-3.84-14.352-3.84s-10.016,1.336-14.351,3.84
	c-4.333-2.504-9.261-3.84-14.353-3.84c-5.091,0-10.017,1.336-14.351,3.84C48.284,262.989,44.173,261.716,39.899,261.376z
	 M152.608,362.154H32.769c-5.414-1.925-9.307-7.083-9.307-13.147c0-7.699,6.266-13.963,13.968-13.963h115.605
	c-2.237,4.163-3.514,8.915-3.514,13.963C149.522,353.728,150.637,358.19,152.608,362.154z M479.761,393.296h-24.755
	c-2.078,0-4.072,0.825-5.541,2.295l-34.315,34.307c-0.963,0.963-2.643,0.961-3.604,0.001l-34.316-34.308
	c-1.469-1.469-3.463-2.295-5.541-2.295H32.239c-4.267,0-7.739-3.47-7.739-7.734s3.471-7.734,7.739-7.734h447.52
	c4.267,0,7.739,3.469,7.739,7.734C487.499,389.827,484.027,393.296,479.761,393.296z M165.195,349.008
	c0-7.699,6.266-13.963,13.968-13.963h153.673c7.702,0,13.968,6.264,13.968,13.963c0,6.064-3.893,11.222-9.306,13.147H174.501
	C169.089,360.23,165.195,355.071,165.195,349.008z M479.232,362.154H359.393c1.972-3.964,3.087-8.426,3.087-13.147
	c0-5.048-1.277-9.8-3.514-13.963h115.605c7.702,0,13.967,6.264,13.967,13.963C488.537,355.071,484.643,360.23,479.232,362.154z
	 M488.523,320.798H23.478c-4.303,0-7.804-3.499-7.804-7.799c0-4.301,3.501-7.8,7.804-7.8h465.045c4.303,0,7.803,3.499,7.803,7.8
	C496.327,317.299,492.826,320.798,488.523,320.798z"/>
</svg>